# xmcd CD database file
#
# Track frame offsets:
#	150
#	71147
#	136097
#	223459
#	285120
#
# Disc length: 4655 seconds
#
# Revision: 0
# Processed by: cddbd v1.5.1PL0 Copyright (c) Steve Scherf et al.
# Submitted via: CDex 1.51
#
DISCID=4c122d05
DTITLE=Steve Kimock and Friends - 02-10-31 Disc1
DYEAR=2002
DGENRE=Jazz
TTITLE0=Anorexia
TTITLE1=Supersonic Transport
TTITLE2=Coles Law
TTITLE3=Sun Sun Sun
TTITLE4=Harder They Come
EXTD=YEAR: 2002
EXTT0=
EXTT1=
EXTT2=
EXTT3=
EXTT4=
PLAYORDER=
